/* XPM */
static char * vsxu_xpm[] = {
"32 32 121 2",
"  	c None",
". 	c #576473",
"+ 	c #838E99",
"@ 	c #8C939B",
"# 	c #8896AD",
"$ 	c #D7DAE7",
"% 	c #B2BCD9",
"& 	c #848E96",
"* 	c #8F9DA7",
"= 	c #767F99",
"- 	c #818A90",
"; 	c #9CAAB2",
"> 	c #78898E",
", 	c #A7B2B7",
"' 	c #9BA4A8",
") 	c #B3C4CF",
"! 	c #C6D7E4",
"~ 	c #849090",
"{ 	c #798387",
"] 	c #BCCEDC",
"^ 	c #C2DFF1",
"/ 	c #57686F",
"( 	c #657173",
"_ 	c #464C51",
": 	c #4B5055",
"< 	c #464B50",
"[ 	c #4D5258",
"} 	c #585D64",
"| 	c #4D5A5E",
"1 	c #354346",
"2 	c #334242",
"3 	c #525B61",
"4 	c #8E9EAD",
"5 	c #7B8894",
"6 	c #99ADBE",
"7 	c #9BB0C1",
"8 	c #7C8C9A",
"9 	c #7A90A2",
"0 	c #96A0A9",
"a 	c #2B4D56",
"b 	c #18353E",
"c 	c #21373F",
"d 	c #AAB2BC",
"e 	c #B8C2CA",
"f 	c #95A6B7",
"g 	c #A8B1BC",
"h 	c #556672",
"i 	c #A8B4C1",
"j 	c #9EA7B5",
"k 	c #6D7A87",
"l 	c #9BA6B0",
"m 	c #27515F",
"n 	c #517D86",
"o 	c #475558",
"p 	c #A5B2BC",
"q 	c #7A8895",
"r 	c #98A1AF",
"s 	c #919AA6",
"t 	c #92A1B1",
"u 	c #9FACBC",
"v 	c #85919C",
"w 	c #A6B4C2",
"x 	c #9AA6B0",
"y 	c #A6B4C3",
"z 	c #9DA7B4",
"A 	c #7F8B97",
"B 	c #99A4B0",
"C 	c #C2CFE0",
"D 	c #A8B2BB",
"E 	c #788D99",
"F 	c #386A7B",
"G 	c #8799AA",
"H 	c #9BADB3",
"I 	c #8197A7",
"J 	c #C9D3E0",
"K 	c #8192A2",
"L 	c #9EAEBE",
"M 	c #9FB0C0",
"N 	c #A8B8C9",
"O 	c #818994",
"P 	c #889AAB",
"Q 	c #828D99",
"R 	c #B0B7C1",
"S 	c #A2ABB6",
"T 	c #8396A8",
"U 	c #A2AAB5",
"V 	c #252F36",
"W 	c #9AA9B7",
"X 	c #7E8C92",
"Y 	c #606C72",
"Z 	c #858F99",
"` 	c #AFBBC6",
" .	c #A7B1B9",
"..	c #8297A0",
"+.	c #7A8B8F",
"@.	c #B1C7D0",
"#.	c #8198A3",
"$.	c #A3AFBB",
"%.	c #D0DBE9",
"&.	c #B8C3D1",
"*.	c #585E62",
"=.	c #AAB1BA",
"-.	c #D4E7EC",
";.	c #A4C9D3",
">.	c #C8E5EC",
",.	c #8CA2AA",
"'.	c #B5C1CF",
").	c #BBC4D1",
"!.	c #B2D2DA",
"~.	c #9DC2CC",
"{.	c #50595D",
"].	c #5A5C60",
"^.	c #B2D0D9",
"/.	c #252926",
"(.	c #23282A",
"_.	c #868890",
":.	c #878D95",
"<.	c #8E97A3",
"[.	c #889098",
"}.	c #829FA8",
"|.	c #253A44",
"                                                                ",
"                                                                ",
"                                                                ",
"                                                                ",
"                                                                ",
"                                                                ",
"                                                                ",
"          . + @                                                 ",
"          # $ %                                                 ",
"          & * =                                                 ",
"          - ; > ,                                               ",
"            ' ) ! ~                                             ",
"          { ] ^ / (     _   :   <   [     }                     ",
"            | 1 2 3     4     5   6 7   8   9                   ",
"            0 a b c d   e   f   g h       i j       k           ",
"            l   m n o   p q r   s t u v   w x   y   z           ",
"      A B C D E F G H   I J   K L M N O P Q R   S T U           ",
"      V W X Y Z `  ...+.@.                                      ",
"        #.$.  %.&.*.=.-.;.>.                                    ",
"          ,.'.).        !.~.                                    ",
"            {.].        ^.                                      ",
"            /.(._.                                              ",
"                  :.<.                                          ",
"                    [.}.                                        ",
"                      |.                                        ",
"                                                                ",
"                                                                ",
"                                                                ",
"                                                                ",
"                                                                ",
"                                                                ",
"                                                                "};
